<svg width="37" height="67" viewBox="0 0 37 67" fill="none" xmlns="http://www.w3.org/2000/svg">
<g clip-path="url(#clip0_1_358)">
<path d="M0.796806 35.3226L18.5027 28.4526L36.2086 35.3226L18.5027 42.198L0.796806 35.3226Z" fill="url(#paint0_linear_1_358)"/>
<g style="mix-blend-mode:multiply">
<path d="M2.8097 34.5412C7.44529 36.3393 18.5027 40.635 18.5027 40.635L34.1957 34.5412C31.0334 33.3114 18.5027 28.4473 18.5027 28.4473L2.8097 34.5412Z" fill="#D1D3D4"/>
</g>
<path d="M36.2086 35.3337L18.5027 67.0001L0.79141 35.3337L18.5027 42.1982L36.2086 35.3337Z" fill="url(#paint1_linear_1_358)"/>
<path d="M36.5 32.191L18.5027 39.1758L0.5 32.191L18.5027 0L36.5 32.191Z" fill="url(#paint2_linear_1_358)"/>
<g style="mix-blend-mode:multiply">
<path d="M18.5027 42.1982L36.2086 35.3337L18.5027 67.0001V42.1982Z" fill="#DCCFEF"/>
</g>
<g style="mix-blend-mode:multiply">
<path d="M36.5 32.191L18.5027 39.1758V0L36.5 32.191Z" fill="#DCCFEF"/>
</g>
</g>
<defs>
<linearGradient id="paint0_linear_1_358" x1="34.7998" y1="34.288" x2="3.0036" y2="34.1298" gradientUnits="userSpaceOnUse">
<stop stop-color="#FF1A40"/>
<stop offset="0.520833" stop-color="#FF49AB"/>
<stop offset="1" stop-color="#452FFF"/>
</linearGradient>
<linearGradient id="paint1_linear_1_358" x1="34.7996" y1="48.777" x2="2.9979" y2="48.7083" gradientUnits="userSpaceOnUse">
<stop stop-color="#FF4060"/>
<stop offset="0.520833" stop-color="#FF81C5"/>
<stop offset="1" stop-color="#6D5EEA"/>
</linearGradient>
<linearGradient id="paint2_linear_1_358" x1="35.0678" y1="16.6312" x2="2.74275" y2="16.5739" gradientUnits="userSpaceOnUse">
<stop stop-color="#FF4060"/>
<stop offset="0.520833" stop-color="#FF81C5"/>
<stop offset="1" stop-color="#6D5EEA"/>
</linearGradient>
<clipPath id="clip0_1_358">
<rect width="36" height="67" fill="white" transform="translate(0.5)"/>
</clipPath>
</defs>
</svg>
